<svg width="393" height="77" xmlns="http://www.w3.org/2000/svg" preserveAspectRatio="xMidYMid meet">
 <metadata>Created by potrace 1.15, written by Peter Selinger 2001-2017</metadata>

 <g>
  <title>background</title>
  <rect fill="none" id="canvas_background" height="402" width="582" y="-1" x="-1"/>
 </g>
 <g>
  <title>Layer 1</title>
  <g id="svg_1" fill="#000000" transform="translate(0,77) scale(0.10000000149011612,-0.10000000149011612) ">
   <path id="svg_2" d="m2600,460c0,-273 0,-280 20,-280c19,0 20,7 20,130c0,150 11,188 62,220c38,24 98,22 128,-5c27,-24 40,-100 40,-230c0,-96 3,-115 15,-115c13,0 15,23 15,144c0,150 -7,185 -42,223c-42,45 -136,42 -191,-6l-32,-29l3,114c3,109 2,114 -17,114c-21,0 -21,-4 -21,-280z"/>
   <path id="svg_3" d="m164,570c-34,-13 -64,-59 -64,-97c0,-45 42,-88 101,-102c81,-20 114,-42 117,-79c5,-46 -20,-80 -64,-88c-50,-9 -112,11 -126,42c-11,23 -28,31 -41,18c-3,-4 1,-20 9,-36c40,-77 208,-77 248,1c40,76 3,137 -100,166c-85,24 -104,39 -104,80c0,18 7,41 16,49c37,37 123,32 150,-9c16,-25 44,-34 44,-14c0,57 -112,99 -186,69z"/>
   <path id="svg_4" d="m515,566c-63,-28 -95,-93 -95,-194c0,-121 54,-192 152,-199c61,-5 110,16 142,60c18,24 18,29 6,37c-11,7 -20,1 -33,-20c-35,-55 -141,-65 -184,-17c-29,31 -41,57 -45,97l-3,35l143,3l142,3l0,42c0,60 -36,128 -80,149c-41,21 -103,23 -145,4zm125,-31c32,-17 53,-51 65,-102l7,-33l-130,0l-130,0l10,43c20,89 102,131 178,92z"/>
   <path id="svg_5" d="m915,566c-63,-28 -95,-93 -95,-194c0,-121 54,-192 152,-199c61,-5 110,16 142,60c18,24 18,29 6,37c-11,7 -20,1 -33,-20c-35,-55 -141,-65 -184,-17c-29,31 -41,57 -45,97l-3,35l143,3l142,3l0,42c0,60 -36,128 -80,149c-41,21 -103,23 -145,4zm125,-31c32,-17 53,-51 65,-102l7,-33l-130,0l-130,0l10,43c20,89 102,131 178,92z"/>
   <path id="svg_6" d="m1345,569c-11,-6 -32,-25 -47,-42l-28,-31l0,37c0,26 -4,37 -15,37c-13,0 -15,-28 -15,-195c0,-188 1,-195 20,-195c19,0 20,7 20,136c0,81 5,144 11,157c32,62 87,89 138,67c46,-19 55,-51 59,-212c3,-119 7,-148 18,-148c11,0 14,25 14,130c0,176 22,225 107,237c32,4 45,0 69,-20l29,-25l3,-161c3,-154 4,-161 24,-161c20,0 20,4 16,158c-3,122 -7,164 -21,188c-39,74 -165,69 -216,-9l-18,-28l-13,31c-21,52 -102,77 -155,49z"/>
   <path id="svg_7" d="m2310,562c-55,-27 -80,-87 -80,-190c0,-123 35,-183 116,-198c75,-14 164,32 164,85c0,31 -22,26 -42,-9c-31,-55 -116,-65 -163,-20c-58,55 -58,235 0,290c28,27 91,35 125,18c14,-8 31,-26 38,-41c14,-29 42,-37 42,-12c0,77 -113,121 -200,77z"/>
   <path id="svg_8" d="m3083,565c-35,-15 -68,-58 -58,-75c10,-17 25,-11 37,15c12,26 54,45 100,45c45,0 88,-48 88,-98l0,-39l-75,-6c-129,-11 -175,-44 -175,-125c0,-52 21,-87 62,-101c65,-23 127,-6 166,44c26,33 32,32 32,-10c0,-24 5,-35 15,-35c22,0 22,284 0,336c-24,58 -117,82 -192,49zm167,-225c0,-113 -119,-182 -191,-111c-34,35 -37,68 -8,105c24,31 64,44 142,45l57,1l0,-40z"/>
   <path id="svg_9" d="m3674,561c-18,-11 -39,-30 -48,-42c-16,-23 -16,-23 -16,-2c0,33 -10,53 -27,53c-11,0 -14,-6 -9,-22c3,-13 6,-101 6,-195c0,-147 2,-173 15,-173c12,0 15,20 15,118c0,64 5,133 10,153c21,74 96,115 161,88c49,-20 59,-58 59,-219c0,-118 2,-140 15,-140c23,0 22,298 -1,341c-28,56 -121,76 -180,40z"/>
   <path id="svg_10" d="m1849,523c10,-26 44,-111 75,-188c31,-76 56,-148 56,-158c0,-47 -69,-117 -115,-117c-8,0 -15,-7 -15,-16c0,-14 8,-16 41,-11c49,6 74,27 104,87c17,34 115,269 182,438c3,7 -3,12 -15,12c-16,0 -31,-31 -88,-176c-50,-129 -70,-171 -76,-157c-4,10 -34,88 -67,173c-48,126 -63,156 -80,158l-21,3l19,-48z"/>
   <path id="svg_11" d="m3410,375c0,-188 1,-195 20,-195c19,0 20,7 20,195c0,188 -1,195 -20,195c-19,0 -20,-7 -20,-195z"/>
  </g>
  <ellipse ry="5.952381" rx="6.666667" id="svg_14" cy="9.690479" cx="342.452384" stroke-opacity="null" stroke-width="0" stroke="#000" fill="#007fff"/>
  <ellipse id="svg_15" cy="86.119052" cx="461.500005" fill-opacity="null" stroke-opacity="null" stroke-width="1.5" stroke="#000" fill="#fff"/>
 </g>
</svg>